<svg width="102" height="47" viewBox="0 0 102 47" fill="none" xmlns="http://www.w3.org/2000/svg">
<g clip-path="url(#clip0)">
<path d="M21.9862 26.6705C22.5494 24.1986 23.3594 21.7901 24.4039 19.4816C24.9557 18.2618 25.5263 17.0508 26.2669 15.9462C26.8986 15.0022 27.5259 14.0494 28.2258 13.1492C28.9867 12.1701 29.8085 11.2524 30.6507 10.3638C31.4291 9.53503 32.2988 8.8084 33.3748 8.40423C33.7611 8.25833 34.1459 8.2948 34.5365 8.28605C35.916 8.25541 37.2054 8.65082 38.5036 9.04915C39.6987 9.41538 39.5912 10.4572 38.9392 11.2057C38.3947 11.8287 37.9576 12.5597 37.3782 13.1404C36.1483 14.3748 35.4702 15.9696 34.628 17.452C34.3042 18.0225 34.0472 18.647 33.7379 19.2408C33.5927 19.5166 33.6478 19.6698 33.9441 19.7763C34.2015 19.884 34.4843 19.9149 34.7587 19.8653C34.9149 19.8259 35.0787 19.8282 35.2338 19.872C35.3889 19.9158 35.53 19.9995 35.643 20.1148C36.6595 20.9903 37.6991 21.8657 38.7243 22.7412C39.1759 23.1147 39.5593 23.5524 39.7567 24.1361C39.7701 24.1814 39.7907 24.2243 39.8177 24.263C40.7108 25.4478 40.8589 26.8791 41.0142 28.3061C41.0353 28.4019 41.0402 28.5005 41.0288 28.5979C40.8139 29.4267 40.9997 30.2671 40.917 31.0959C40.7921 32.3522 40.4813 33.5384 39.5781 34.4956C39.0438 35.0646 38.5704 35.6935 38.0607 36.2873C37.905 36.4969 37.7179 36.681 37.506 36.833C36.5665 37.3933 35.778 38.2177 34.718 38.5722C34.2984 38.7181 33.9499 39.0318 33.5564 39.2128C32.2291 39.8256 30.8352 40.2006 29.3758 40.0342C28.8037 39.9686 28.2287 39.9467 27.658 39.8591C26.1769 39.6359 24.9397 39.0318 24.0278 37.7697C23.3976 36.8943 22.7543 36.0451 22.3318 35.0179C21.87 33.8973 21.7001 32.7257 21.6493 31.5365C21.5723 29.6908 21.6391 27.8509 21.9862 26.6705ZM29.9537 30.003C29.8477 30.4699 29.7359 30.9354 29.6386 31.4038C29.5406 31.7746 29.5072 32.1596 29.5399 32.5418C29.6067 33.0306 29.7548 33.1255 30.1817 32.9125C30.6941 32.6257 31.1763 32.2874 31.6207 31.9028C32.3221 31.3439 32.6575 30.629 32.5399 29.7141C32.5302 29.4997 32.5336 29.2848 32.5501 29.0707C32.5501 28.1369 32.508 27.206 32.2248 26.313C32.1246 25.9935 32.1362 25.5032 31.6846 25.5164C31.2679 25.5266 31.2214 26.0022 31.0907 26.3174C30.573 27.4983 30.1915 28.7349 29.9537 30.003Z" fill="white"/>
<path d="M15.5654 37.2271C15.0179 37.5189 14.9366 37.6998 15.1167 38.1682C15.2619 38.5417 15.2357 38.5811 14.681 38.8335C14.6302 39.5295 14.2599 39.7819 13.4308 39.8374C12.9095 39.8724 12.4042 39.8272 12.015 39.4624C11.8146 39.2756 11.4952 39.1706 11.3296 38.9663C10.6965 38.2003 10.0228 37.4605 9.62925 36.5676C8.86728 34.8123 8.47474 32.9176 8.4763 31.0026C8.44726 27.8831 8.94677 24.8161 9.78317 21.7754C10.4001 19.5782 11.1841 17.4319 12.1283 15.3554C12.4884 14.6015 12.8943 13.8706 13.3437 13.1668C13.8874 12.2471 14.5103 11.3771 15.2052 10.5667C15.6191 10.091 16.0257 9.61537 16.5905 9.25352C17.1118 8.91356 18.7541 8.39996 19.4047 8.37807C19.9405 8.35619 20.4734 8.31095 21.002 8.28761C21.1521 8.271 21.304 8.28641 21.4477 8.33284C21.9719 8.55754 22.5034 8.77056 22.8635 9.1937C23.0712 9.43445 23.3282 9.64748 23.562 9.87217C23.9511 10.2442 23.9424 10.6922 23.8524 11.1255C23.7652 11.4376 23.6336 11.7354 23.4618 12.0097C23.0746 12.7091 22.6767 13.4046 22.2682 14.0962C22.1125 14.3516 21.9388 14.5954 21.7483 14.8258C20.99 15.782 20.3498 16.827 19.8417 17.938C19.2377 19.2337 18.8514 20.5789 18.4303 21.9169C18.2444 22.5108 18.0324 23.0988 17.8582 23.6955C17.6578 24.3842 17.5053 25.0817 17.2977 25.7689C17.0697 26.532 16.7851 27.282 16.5586 28.0436C16.364 28.7002 16.1854 29.3568 16.0562 30.0265C15.911 30.7838 15.8209 31.5498 15.7149 32.3129C15.6612 32.7025 15.6322 33.0949 15.5784 33.4801C15.5494 33.6975 15.5552 33.9398 15.4332 34.1221C15.0412 34.7247 15.1428 35.3288 15.3069 35.9518C15.4231 36.3618 15.4797 36.7806 15.5654 37.2271Z" fill="white"/>
<path d="M49.7754 23.3045C50.3968 20.9499 51.2561 18.6652 52.3398 16.4862C52.7841 15.5845 53.2517 14.6944 53.7352 13.819C54.0372 13.2704 54.3727 12.748 54.9535 12.5904C55.0987 12.551 56.2822 10.9037 56.8485 10.45C60.2507 7.35378 64.4879 8.4583 64.7522 8.76325C68.407 8.95439 69.0358 14.9848 69.1549 15.0986C70.4283 20.6577 68.407 29.2517 61.3136 37.4591C59.166 39.9395 56.9182 39.9526 56.4462 39.9803C56.2212 39.9935 55.5997 40.0504 55.5271 40.0285C55.0827 39.8957 54.6137 40.0022 54.1621 39.9453C53.6523 39.8902 53.1603 39.7251 52.7198 39.4615C52.2792 39.1978 51.9005 38.8418 51.6094 38.4177C51.0285 37.6283 50.1573 34.8458 49.9511 34.4708C49.0798 32.8659 48.8025 31.0405 48.8228 29.0722C48.8431 27.2177 49.2149 25.4143 49.6534 23.6138C49.6903 23.5014 49.7359 23.3921 49.7899 23.287C49.6737 23.856 49.53 24.4236 49.4458 24.997C49.286 26.0855 49.1219 27.1754 49.0319 28.2668C48.9172 29.6559 49.1292 30.9793 49.4603 32.2574C49.5518 32.6091 49.6447 32.9709 49.9482 33.3007C49.9482 32.9826 49.9612 32.7696 49.9569 32.558C49.9395 31.8007 49.7681 31.0872 49.8872 30.2818C49.9845 29.6311 50.0324 28.9686 50.1166 28.3062C50.3155 26.8209 50.407 25.3253 50.5522 23.8341C50.5856 23.4796 50.6176 23.1221 50.6844 22.7719C50.8296 22.0044 51.0096 21.2413 51.1679 20.4753C51.1715 20.4067 51.1652 20.3379 51.149 20.271C50.8717 20.7978 50.696 21.3683 50.3054 21.7841C50.2557 21.8703 50.2218 21.9646 50.2052 22.0628C50.058 22.4723 49.9148 22.8862 49.7754 23.3045ZM55.0029 33.1577C55.3093 32.9125 55.5837 32.7696 55.771 32.5303C56.6217 31.4785 57.3764 30.3519 58.0261 29.1642C59.5086 26.4056 60.7833 23.5392 61.8393 20.5891C62.1428 19.7443 62.3983 18.8776 62.6582 18.0153C62.7047 17.8694 62.7163 17.5776 62.6582 17.5353C62.5889 17.501 62.5126 17.4832 62.4354 17.4832C62.3581 17.4832 62.2818 17.501 62.2125 17.5353C61.9672 17.6355 61.7419 17.7794 61.5474 17.9599C60.9971 18.5099 60.4467 19.0673 59.9429 19.6787C59.5363 20.1718 59.2008 20.7525 58.8248 21.2837C58.6795 21.4821 58.5067 21.7943 58.3586 21.8016C58.0595 21.8148 57.9971 22.0701 57.8838 22.2714C57.7705 22.4728 57.7386 22.6844 57.6457 22.8828C56.8659 24.606 56.3388 26.4371 55.8247 28.2668C55.6171 28.9964 55.4327 29.739 55.2846 30.4846C55.1365 31.2302 55.0435 31.9846 54.9346 32.736C54.9424 32.8786 54.9652 33.02 55.0029 33.1577ZM63.9971 19.5079L63.9666 19.4963C64.0377 19.1651 64.1263 18.8338 64.1757 18.4983C64.2076 18.2721 64.09 18.1116 63.9128 18.0985C63.8565 18.1076 63.8032 18.1305 63.7576 18.1651C63.7121 18.1996 63.6756 18.2449 63.6515 18.2969C63.5147 18.7422 63.3271 19.1702 63.0924 19.5721C62.802 20.0463 62.6946 20.6825 62.5203 21.253C62.4579 21.4544 62.362 21.682 62.5726 21.8366C62.6223 21.8705 62.6785 21.8936 62.7375 21.9046C62.7966 21.9156 62.8573 21.9142 62.9158 21.9005C62.9743 21.8868 63.0293 21.8611 63.0775 21.825C63.1256 21.7889 63.1658 21.7432 63.1955 21.6907C63.3274 21.4958 63.4333 21.2844 63.5106 21.0619C63.682 20.5424 63.8315 20.023 63.9927 19.5079H63.9971ZM56.5421 11.3969C56.9458 11.6318 57.0358 11.5428 57.0808 10.9125L56.5421 11.3969ZM56.0484 11.9222C56.3693 11.9601 56.3693 11.9601 56.4303 11.6303L56.0484 11.9222Z" fill="white"/>
<path d="M102 21.1801C101.939 21.4062 101.811 21.4442 101.71 21.5317C101.518 21.7024 101.318 21.8527 101.129 22.038C100.94 22.2233 101.045 22.6698 100.775 22.7793C100.712 22.8041 100.734 22.9762 100.712 23.0711C100.624 23.465 100.531 23.8488 100.277 24.1012C100.152 24.2237 100.021 24.393 100.242 24.5943C100.364 24.7067 100.332 24.8409 100.256 24.9781C100.043 25.3706 99.8409 25.7806 99.5214 26.0155C99.3573 26.1328 99.2287 26.2933 99.1497 26.4795C99.0288 26.7891 98.8284 27.0609 98.5689 27.2674C98.5217 27.2982 98.4811 27.3382 98.4497 27.3851C98.4183 27.432 98.3966 27.4847 98.3859 27.5402C98.3307 27.9429 98.1173 28.0509 97.8864 28.0684C97.715 28.0801 97.6381 28.1166 97.5814 28.3982C97.4667 28.9818 97.0732 29.0723 96.7421 29.0883C96.4517 29.1029 96.2673 29.3218 96.048 29.4867C95.973 29.5547 95.9155 29.64 95.8806 29.7354C95.8457 29.8307 95.8344 29.9331 95.8477 30.0338C95.8622 30.2673 95.7765 30.4526 95.7388 30.6612C95.6923 30.9268 95.6052 31.1223 95.3888 31.1806C95.0621 31.2697 94.8515 31.7015 94.5335 31.8445C94.3001 31.955 94.0779 32.0879 93.8699 32.2414C93.6056 32.4311 93.5926 32.5916 93.7843 32.9301C94.0035 33.3167 94.0035 33.416 93.6971 33.6757C93.4261 33.9177 93.1285 34.1277 92.8099 34.3016C92.5149 34.453 92.2454 34.6499 92.0113 34.8853C91.4406 35.4514 90.7567 35.7126 90.2005 36.3166C90.0553 36.483 89.884 36.5938 89.7997 36.9003C89.6966 37.2738 89.3888 37.3059 89.1623 37.4445C89.0197 37.5232 88.8867 37.6182 88.7659 37.7276C88.0877 38.4046 87.3051 38.5184 86.6197 39.1793C86.469 39.2969 86.2968 39.3836 86.1129 39.4347C85.9546 39.4989 85.776 39.493 85.6323 39.5966C85.1052 39.9833 84.5447 39.7951 83.9972 39.8257C83.7954 39.8374 83.6255 39.6623 83.4585 39.5222C83.0662 39.1705 82.5883 38.9294 82.0732 38.8233C81.4698 38.7182 80.9075 38.4458 80.4498 38.0369C80.1452 37.752 79.8822 37.4254 79.6686 37.0666C79.1778 36.3035 78.6652 35.5725 78.1729 34.8123C78.0568 34.6343 77.9551 34.6328 77.8157 34.7043C77.3423 34.9422 76.9445 35.3799 76.5088 35.7257C76.0732 36.0715 74.6356 38.2733 74.2944 38.7825C73.9198 39.3413 73.3738 39.4887 72.9149 39.8461C72.9019 39.8564 72.883 39.8724 72.8728 39.8666C72.4851 39.6638 72.0568 39.922 71.6778 39.6462C71.624 39.602 71.56 39.5723 71.4917 39.5597C71.4233 39.5472 71.353 39.5524 71.2872 39.5748C70.9488 39.6798 70.6613 39.5748 70.3607 39.2829C69.9614 38.9065 69.5577 38.5534 69.2339 38.0398C69.1482 37.9041 69.0553 37.7757 69.1279 37.5875C69.1814 37.4775 69.1943 37.352 69.1642 37.2333C69.1342 37.1146 69.0631 37.0106 68.9638 36.9397C68.5006 36.5938 68.4599 35.3638 68.4048 34.751C68.3597 34.2724 68.5253 34.4329 68.8331 34.1937C69.0391 34.0498 69.2062 33.8567 69.3196 33.6319C69.4082 33.4821 69.5363 33.3599 69.6899 33.2788C70.3346 32.8061 75.4328 25.1663 76.5234 23.43C77.5935 21.7272 78.5969 19.937 79.6177 18.1773C79.8788 17.6891 80.0704 17.1665 80.187 16.6248C79.5987 16.7895 79.0833 17.1495 78.7247 17.6462C78.2107 18.3159 77.624 18.8412 77.094 19.4803C76.7439 19.8806 76.3087 20.1968 75.8205 20.4053C75.6216 20.4987 75.4372 20.4287 75.2615 20.2769C74.9963 20.0504 74.6725 19.9041 74.3278 19.8552C73.9227 19.7896 73.5713 19.4569 73.2024 19.2235C73.0645 19.1359 72.9411 18.9885 72.7988 18.9316C72.3138 18.7566 72.0727 18.1116 71.6908 17.7469C71.6547 17.71 71.6274 17.6654 71.6111 17.6163C71.5947 17.5673 71.5897 17.5151 71.5964 17.4638C71.6618 17.0961 71.5137 16.851 71.3932 16.5767C71.1681 16.0689 71.232 15.4999 71.3641 15.0096C71.4745 14.5967 71.823 14.4523 72.1119 14.3851C72.4337 14.3075 72.7174 14.1171 72.912 13.8482C73.053 13.6702 73.2149 13.51 73.3941 13.3711C73.8065 13.0515 74.1565 12.5992 74.5558 12.249C75.1265 11.7384 75.7378 11.3225 76.3186 10.8337C76.7063 10.5069 77.1434 10.3537 77.5282 10.021C77.8241 9.7472 78.1868 9.55692 78.5795 9.46949C78.704 9.43904 78.8198 9.38012 78.9178 9.29732C79.7891 8.61155 80.7547 8.5561 81.7175 8.36496C81.9556 8.31682 82.1952 8.43792 82.429 8.36496C83.2349 8.13881 83.9406 8.41166 84.6071 8.97632C85.1192 9.38787 85.5243 9.91808 85.7876 10.5215C86.1957 11.4378 86.7257 12.2184 87.2107 13.0472C87.899 14.2232 87.9875 15.4955 87.6812 16.9546C87.4488 17.9726 87.106 18.962 86.6589 19.9049C86.4105 20.431 86.1317 20.942 85.8239 21.4354C85.3186 22.2919 84.838 23.1863 84.3327 24.0355C84.2514 24.2015 84.139 24.3502 84.0016 24.4732C83.791 24.6192 81.4967 28.3719 81.7639 28.8213C82.0761 29.3495 83.8752 31.4477 84.0989 31.3018C85.1647 30.5576 89.2029 27.2601 101.299 19.5591C101.416 19.4759 101.544 19.3241 101.662 19.5255C101.715 19.6172 101.744 19.7211 101.747 19.8273C101.749 19.9335 101.724 20.0385 101.675 20.1325C101.535 20.3873 101.457 20.6718 101.447 20.9627C101.428 21.3333 101.469 21.3844 101.717 21.2662C101.803 21.2253 101.871 21.1188 102 21.1801Z" fill="white"/>
<path d="M45.5125 38.9836C45.3556 39.4505 45.1117 39.8853 44.6412 40.126C44.4191 40.2398 44.1853 40.3361 44.0009 40.0662C43.8673 39.8707 43.677 39.8649 43.465 39.9072C43.2873 39.943 43.1073 39.9659 42.9263 39.9757C42.7755 39.9851 42.6252 39.9503 42.4937 39.8754C42.3622 39.8005 42.2553 39.6889 42.1858 39.5541C41.9652 39.2105 41.771 38.8505 41.6049 38.4773C41.4921 38.1925 41.4383 37.8877 41.4466 37.5814C41.4713 36.9759 41.6848 36.4944 42.344 36.3164C42.8058 36.1909 43.2356 35.9034 43.7003 35.7955C44.2942 35.6496 44.8619 35.7838 45.2772 36.2799C45.3917 36.3932 45.4778 36.5322 45.5284 36.6855C45.6896 37.434 45.8552 38.1898 45.5125 38.9836Z" fill="white"/>
<path d="M27.3914 2.84669C28.1726 3.07139 28.4529 3.5062 29.1339 3.39239C29.5027 3.33111 29.9079 3.23189 30.2491 3.32527C30.998 3.53712 31.7288 3.80889 32.4345 4.13798C32.814 4.33296 33.237 4.4269 33.663 4.41083C33.8551 4.40494 34.0457 4.44705 34.2176 4.5334C34.5676 4.70557 34.8987 4.91859 35.1993 5.09222L35.9485 4.7187L35.9398 4.74205C35.5768 4.59614 35.1673 4.5013 34.8595 4.27368C33.9679 3.61125 32.9471 3.20709 31.9713 2.71684C31.222 2.34039 30.5265 1.91434 30.0661 1.18334C29.9239 0.943796 29.7289 0.740279 29.496 0.58849C29.2631 0.436702 28.9986 0.340699 28.723 0.30789C28.2756 0.237682 27.8328 0.140231 27.3972 0.0160733C17.7786 -0.264071 12.0168 2.78833 12.0168 2.78833C11.2907 3.32528 10.556 3.85784 9.79219 4.3408C8.04968 5.41648 6.53692 6.82891 5.34156 8.49627C5.08018 8.86542 4.81881 9.23602 4.57195 9.61393C4.10293 10.3303 3.57437 11.0161 3.19538 11.7777C2.38802 13.4032 1.65472 15.0651 1.16247 16.8247C0.995478 17.4288 0.696349 18.0051 0.596155 18.6165C0.373987 19.9836 0.0153225 21.3333 0.0661453 22.7428C0.0995432 23.6722 0.0283917 24.6046 0.000802104 25.5369C-0.0505351 26.8732 0.0853541 28.2102 0.404481 29.5085C0.549689 30.0922 0.706514 30.6758 0.872051 31.2594C1.04315 31.9459 1.24864 32.6233 1.48773 33.289C1.95261 34.5168 2.54751 35.6908 3.26218 36.7908C4.17989 38.1667 5.17747 39.4566 6.3827 40.5728C7.02307 41.1681 7.75927 41.6496 8.66102 41.8568C9.09664 41.9589 9.50613 42.2784 9.904 42.5323C10.3251 42.8022 10.7085 43.1305 11.1281 43.4005C11.6973 43.7682 12.3043 44.0775 12.8604 44.4627C13.4413 44.8683 14.0221 45.255 14.722 45.4373C15.5468 45.6548 16.3701 45.8751 17.1905 46.1392C18.6426 46.6002 20.147 46.7009 21.6412 46.8775C22.3406 46.9584 23.0441 46.9994 23.7481 47C24.4974 47 25.2481 46.965 25.996 46.9023C27.448 46.7826 28.9001 46.6922 30.207 45.8984C30.4858 45.7292 30.872 45.719 31.2147 45.6825C31.5574 45.646 31.9205 45.7262 32.2515 45.6533C33.8302 45.3218 35.3329 44.6958 36.6818 43.8076C37.3077 43.3873 37.8043 42.7935 37.8856 41.972C37.9437 41.3782 37.9916 40.7843 38.0497 40.1336C37.1654 40.4123 36.4161 40.9317 35.6523 41.4745C35.6175 41.3417 35.587 41.2279 35.555 41.1112C34.8638 40.9346 34.4558 41.3913 34.1029 41.8407C33.8401 42.1763 33.6194 42.4739 33.1475 42.4608C33.086 42.465 33.0262 42.4823 32.9718 42.5115C32.9175 42.5407 32.87 42.5811 32.8324 42.6301C32.3067 43.3932 31.3803 43.5901 30.7007 44.1285C30.4103 44.3605 29.9587 44.4481 29.5695 44.4962C28.8812 44.5809 28.2133 44.629 27.7051 45.2112C27.5599 45.3804 27.2694 45.4636 27.0211 45.503C26.2051 45.6387 25.3846 45.7613 24.5613 45.8401C24.0139 45.8911 23.4708 45.8328 23.2007 45.1105C22.8609 45.5191 22.5865 45.2564 22.2961 45.1105C21.9712 44.9286 21.6351 44.7678 21.2898 44.629C20.4113 44.3197 19.5124 44.0702 18.6397 43.7463C17.3212 43.256 16.026 42.7118 14.7075 42.2142C14.4345 42.1106 14.0991 42.0143 13.8362 42.08C13.46 42.1753 13.0679 42.1885 12.6862 42.1188C12.3045 42.0491 11.942 41.8981 11.6233 41.6758C11.2914 41.4572 10.9742 41.2169 10.6736 40.9565C10.2714 40.6151 9.89238 40.2445 9.49596 39.8943C9.07776 39.5251 8.66973 39.1516 8.58115 38.5549C8.52742 38.1959 8.33139 38.0237 7.95676 38.0748C7.58212 38.1259 7.32365 37.9362 7.10003 37.6852C6.87641 37.4343 6.69635 37.1673 6.47999 36.9221C5.67699 36.0102 5.36189 34.7671 4.4645 33.9179C4.39705 33.8424 4.34742 33.7527 4.31929 33.6552C4.0797 32.9636 3.78928 32.2822 3.62084 31.5731C3.28977 30.1739 2.77863 28.8315 2.53033 27.4016C2.22539 25.6507 1.89141 23.9202 2.4737 22.1664C2.50878 22.0191 2.52777 21.8685 2.53033 21.717C2.63197 20.6665 2.90206 20.3747 3.93159 20.2069C4.61552 20.0945 4.77234 19.9355 4.86382 19.2453C4.89722 18.9973 4.91755 18.7463 4.95966 18.4997C5.06276 17.9161 5.0221 17.6987 4.50661 17.4784C3.63536 17.1122 3.58454 16.3943 3.81397 15.5728C3.88802 15.3073 4.01 15.0519 4.07244 14.7835C4.37738 13.4557 5.05695 12.303 5.75976 11.1678C5.99645 10.7812 6.21716 10.3814 6.4858 10.0181C6.8401 9.53368 7.16973 8.99673 7.62278 8.62904C8.32558 8.05271 9.01532 7.49534 9.51048 6.71473C9.70506 6.40832 10.0565 5.9954 10.3353 5.99686C11.0018 5.99686 11.4011 5.50077 11.9616 5.34319C12.1939 5.27753 12.3972 5.12724 12.6281 5.04408C12.6179 5.04991 19.585 0.602624 27.3914 2.84669Z" fill="white"/>
<path d="M41.8111 13.5868C41.6412 13.3373 41.4292 13.1068 41.3131 12.834C41.2436 12.6834 41.2293 12.513 41.2726 12.3529C41.3159 12.1927 41.414 12.0531 41.5497 11.9585C41.8503 11.728 42.1015 11.8432 42.3455 12.0869C42.4602 12.2022 42.6359 12.3598 42.7651 12.3393C43.3387 12.2489 43.4912 12.6749 43.571 13.0455C43.6698 13.4833 43.8847 13.7911 44.1519 14.1428C44.6935 14.8577 45.1015 15.6748 45.5662 16.4496C45.6608 16.6485 45.7762 16.8368 45.9103 17.0113C46.571 17.719 46.7743 18.5507 46.6814 19.4918C46.6605 19.7888 46.7015 20.087 46.8019 20.3672C47.3711 22.0393 46.3576 20.6415 47.0154 22.7499C47.1446 23.1657 47.1504 24.6146 47.101 25.0538C46.9907 26.0197 46.905 27.0119 46.1775 27.7721C46.0824 27.8871 45.9764 27.9927 45.861 28.0872C45.3353 28.4607 45.7419 28.7963 45.2438 29.2034C45.0798 29.3362 45.0406 29.6411 44.9723 29.8717C44.8794 30.1883 44.8445 30.5429 44.3915 30.5195L44.4045 30.5326C44.4859 30.0424 44.5657 29.5521 44.6645 28.9525C44.5962 28.8532 45.4181 26.7142 45.2453 26.453C46.0076 25.957 45.723 19.9981 43.1441 16.7268" fill="white"/>
<path d="M35.9375 8.97639C36.2991 9.15148 36.6635 9.31052 37.0193 9.50458C37.6205 9.83725 38.181 10.2195 38.3668 10.9505C37.8789 11.3605 37.8818 11.3576 37.4636 11.0395C37.1639 10.8339 36.887 10.5966 36.6374 10.3319C36.5474 10.1305 36.4646 9.92772 36.3659 9.7322C36.2323 9.46956 36.0856 9.21422 35.9448 8.95451C35.9428 8.96194 35.9404 8.96925 35.9375 8.97639Z" fill="white"/>
</g>
<defs>
<clipPath id="clip0">
<rect width="102" height="47" fill="white"/>
</clipPath>
</defs>
</svg>
