<svg width="43" height="38" viewBox="0 0 43 38" fill="none" xmlns="http://www.w3.org/2000/svg">
<path d="M37.6785 23.75H15.7944L16.283 26.125H36.3212C37.4709 26.125 38.3231 27.1864 38.0683 28.301L37.6564 30.1027C39.0518 30.7761 40.0139 32.1982 40.0139 33.8437C40.0139 36.1595 38.1088 38.0329 35.7718 37.9995C33.5455 37.9677 31.7144 36.1715 31.6544 33.9586C31.6215 32.7498 32.1086 31.6541 32.9087 30.8749H17.2579C18.0326 31.6294 18.5139 32.6804 18.5139 33.8437C18.5139 36.2049 16.5335 38.1062 14.134 37.9954C12.0034 37.8971 10.2707 36.1856 10.1587 34.068C10.0722 32.4326 10.9378 30.9912 12.2528 30.2393L7.00863 4.75H1.79167C0.802144 4.75 0 3.95252 0 2.96875V1.78125C0 0.79748 0.802144 0 1.79167 0H9.44574C10.2969 0 11.0305 0.595309 11.2011 1.42426L11.8853 4.75H41.2076C42.3573 4.75 43.2095 5.8114 42.9547 6.92602L39.4256 22.3635C39.2403 23.1745 38.5151 23.75 37.6785 23.75Z" fill="white"/>
</svg>
