<svg width="40" height="39" viewBox="0 0 40 39" fill="none" xmlns="http://www.w3.org/2000/svg">
<path fill-rule="evenodd" clip-rule="evenodd" d="M20 0C8.9543 0 0 8.73045 0 19.5C0 30.2696 8.9543 39 20 39C31.0457 39 40 30.2696 40 19.5C40 8.73045 31.0457 0 20 0ZM15.6027 9.1628C16.7405 9.11232 17.1041 9.09997 20.001 9.09997H19.9977C22.8955 9.09997 23.2577 9.11232 24.3955 9.1628C25.5311 9.21351 26.3066 9.38879 26.9866 9.64598C27.6889 9.9114 28.2822 10.2667 28.8755 10.8452C29.4689 11.4233 29.8333 12.0036 30.1067 12.6876C30.3689 13.3488 30.5489 14.1046 30.6022 15.2118C30.6533 16.3211 30.6667 16.6756 30.6667 19.5001C30.6667 22.3246 30.6533 22.6782 30.6022 23.7875C30.5489 24.8943 30.3689 25.6502 30.1067 26.3117C29.8333 26.9955 29.4689 27.5758 28.8755 28.1538C28.2829 28.7323 27.6886 29.0885 26.9873 29.3542C26.3086 29.6114 25.5326 29.7867 24.3971 29.8374C23.2593 29.8878 22.8968 29.9002 19.9997 29.9002C17.103 29.9002 16.7396 29.8878 15.6019 29.8374C14.4665 29.7867 13.6912 29.6114 13.0125 29.3542C12.3114 29.0885 11.7163 28.7323 11.1236 28.1538C10.5305 27.5758 10.166 26.9955 9.89335 26.3115C9.62979 25.6502 9.45001 24.8945 9.39779 23.7873C9.34623 22.678 9.33334 22.3246 9.33334 19.5001C9.33334 16.6756 9.34667 16.3209 9.39756 15.2116C9.44868 14.1048 9.62868 13.3488 9.89313 12.6874C10.1665 12.0036 10.5309 11.4233 11.1242 10.8452C11.7171 10.2669 12.3123 9.91161 13.0138 9.64598C13.6921 9.38879 14.4672 9.21351 15.6027 9.1628Z" fill="white"/>
<path fill-rule="evenodd" clip-rule="evenodd" d="M19.0445 10.9742C19.2303 10.9739 19.4302 10.974 19.6459 10.9741L20.0014 10.9742C22.8494 10.9742 23.187 10.9841 24.3116 11.034C25.3517 11.0804 25.9161 11.2498 26.2921 11.3921C26.7899 11.5806 27.1448 11.806 27.5179 12.17C27.8912 12.534 28.1223 12.8807 28.3161 13.366C28.4621 13.7322 28.6361 14.2825 28.6835 15.2965C28.7346 16.3929 28.7457 16.7222 28.7457 19.4977C28.7457 22.2732 28.7346 22.6026 28.6835 23.6989C28.6359 24.7129 28.4621 25.2633 28.3161 25.6295C28.1228 26.1148 27.8912 26.4604 27.5179 26.8242C27.1446 27.1882 26.7901 27.4135 26.2921 27.602C25.9165 27.745 25.3517 27.914 24.3116 27.9604C23.1872 28.0102 22.8494 28.021 20.0014 28.021C17.1531 28.021 16.8156 28.0102 15.6911 27.9604C14.6511 27.9136 14.0866 27.7441 13.7104 27.6018C13.2126 27.4133 12.8571 27.188 12.4837 26.8239C12.1104 26.4599 11.8793 26.1141 11.6855 25.6286C11.5395 25.2624 11.3655 24.7121 11.3182 23.6981C11.2671 22.6017 11.2568 22.2724 11.2568 19.4951C11.2568 16.7179 11.2671 16.3903 11.3182 15.2939C11.3657 14.2799 11.5395 13.7296 11.6855 13.363C11.8788 12.8776 12.1104 12.5309 12.4837 12.1669C12.8571 11.8029 13.2126 11.5776 13.7104 11.3887C14.0864 11.2457 14.6511 11.0767 15.6911 11.0301C16.6751 10.9867 17.0565 10.9737 19.0445 10.9716V10.9742ZM25.6952 12.701C24.9885 12.701 24.4152 13.2594 24.4152 13.9486C24.4152 14.6376 24.9885 15.1966 25.6952 15.1966C26.4019 15.1966 26.9752 14.6376 26.9752 13.9486C26.9752 13.2596 26.4019 12.7006 25.6952 12.7006V12.701ZM14.5235 19.5001C14.5235 16.5506 16.9761 14.1593 20.0011 14.1592C23.0263 14.1592 25.4783 16.5506 25.4783 19.5001C25.4783 22.4496 23.0265 24.8399 20.0014 24.8399C16.9762 24.8399 14.5235 22.4496 14.5235 19.5001Z" fill="white"/>
<path d="M20.0009 16.0334C21.9645 16.0334 23.5565 17.5854 23.5565 19.5001C23.5565 21.4146 21.9645 22.9668 20.0009 22.9668C18.0371 22.9668 16.4453 21.4146 16.4453 19.5001C16.4453 17.5854 18.0371 16.0334 20.0009 16.0334Z" fill="white"/>
</svg>
