<svg width="40" height="39" viewBox="0 0 40 39" fill="none" xmlns="http://www.w3.org/2000/svg">
<path fill-rule="evenodd" clip-rule="evenodd" d="M40 19.5C40 30.2696 31.0457 39 20 39C8.95431 39 0 30.2696 0 19.5C0 8.73045 8.95431 0 20 0C31.0457 0 40 8.73045 40 19.5ZM13.393 17.7137C11.3895 18.5666 9.33091 19.4429 7.44854 20.4538L7.44841 20.454C6.46551 21.1556 7.77199 21.6519 8.99755 22.1174C9.19239 22.1914 9.38518 22.2647 9.56641 22.3378C9.71722 22.383 9.87058 22.4307 10.026 22.4789C11.389 22.9023 12.909 23.3745 14.2322 22.6642C16.406 21.4468 18.4575 20.0391 20.5074 18.6326C21.179 18.1718 21.8504 17.7111 22.5259 17.2572C22.5575 17.2375 22.5933 17.2149 22.6323 17.1902C23.2078 16.8265 24.502 16.0086 24.0233 17.1356C22.8912 18.3427 21.6787 19.4112 20.4595 20.4855C19.6379 21.2096 18.8133 21.9362 18.0083 22.7097C17.3071 23.2652 16.5791 24.3821 17.3642 25.1599C19.1725 26.3942 21.009 27.5985 22.8444 28.8021C23.4417 29.1938 24.0388 29.5853 24.6349 29.9779C25.645 30.7642 27.2238 30.1282 27.4459 28.8994C27.5446 28.3341 27.6438 27.7688 27.743 27.2035C28.2909 24.0797 28.8391 20.9549 29.3234 17.8209C29.3892 17.3293 29.4638 16.8378 29.5384 16.3459C29.7193 15.1539 29.9005 13.9604 29.957 12.762C29.8112 11.566 28.3239 11.829 27.4962 12.0979C23.2419 13.6763 19.03 15.3716 14.8349 17.0969C14.3597 17.3022 13.8779 17.5072 13.393 17.7137Z" fill="white"/>
</svg>
