<svg width="40" height="39" viewBox="0 0 40 39" fill="none" xmlns="http://www.w3.org/2000/svg">
<path fill-rule="evenodd" clip-rule="evenodd" d="M20 0C8.9543 0 0 8.73045 0 19.5C0 30.2696 8.9543 39 20 39C31.0457 39 40 30.2696 40 19.5C40 8.73045 31.0457 0 20 0ZM21.6285 25.6557C21.4312 25.8584 21.0462 25.8993 21.0462 25.8993H19.7712C19.7712 25.8993 16.9581 26.0611 14.48 23.5925C11.7776 20.8993 9.39129 15.5558 9.39129 15.5558C9.39129 15.5558 9.25356 15.2052 9.40277 15.0365C9.57076 14.8457 10.0288 14.8338 10.0288 14.8338L13.0766 14.8148C13.0766 14.8148 13.3636 14.8597 13.5691 15.0045C13.7392 15.1244 13.8341 15.347 13.8341 15.347C13.8341 15.347 14.3266 16.5394 14.9788 17.6179C16.2528 19.7239 16.8454 20.1843 17.2774 19.9586C17.9076 19.6301 17.7188 16.9818 17.7188 16.9818C17.7188 16.9818 17.7303 16.0211 17.4016 15.5927C17.147 15.2612 16.667 15.1643 16.4552 15.1373C16.283 15.1154 16.5648 14.7339 16.93 14.5631C17.4788 14.3065 18.4471 14.2915 19.5917 14.3025C20.4838 14.3115 20.7405 14.3644 21.089 14.4453C21.8978 14.6321 21.8726 15.2307 21.8181 16.5228C21.8018 16.9091 21.7829 17.3576 21.7829 17.8755C21.7829 17.9919 21.7793 18.116 21.7757 18.2436C21.7568 18.9055 21.7351 19.6635 22.1909 19.9456C22.4246 20.0894 22.9953 19.9666 24.4238 17.6458C25.1009 16.5454 25.608 15.2522 25.608 15.2522C25.608 15.2522 25.7197 15.0215 25.8918 14.9226C26.0682 14.8218 26.3061 14.8527 26.3061 14.8527L29.5135 14.8338C29.5135 14.8338 30.4776 14.7229 30.6331 15.1403C30.7969 15.5767 30.2731 16.5973 28.9626 18.269C27.7211 19.853 27.1161 20.4376 27.1698 20.9535C27.2092 21.3318 27.6025 21.6731 28.3585 22.3443C29.9338 23.7441 30.3561 24.4805 30.4575 24.6575C30.4659 24.6721 30.4721 24.683 30.4766 24.69C31.183 25.8114 29.693 25.8993 29.693 25.8993L26.8434 25.9373C26.8434 25.9373 26.232 26.0531 25.4265 25.5238C25.0045 25.2468 24.5922 24.7944 24.1995 24.3635C23.5997 23.7054 23.0456 23.0974 22.5727 23.241C21.7787 23.4827 21.8027 25.1194 21.8027 25.1194C21.8027 25.1194 21.809 25.4699 21.6285 25.6557Z" fill="white"/>
</svg>
